<svg xmlns="http://www.w3.org/2000/svg" width="165.875" height="35.273" viewBox="0 0 165.875 35.273"><defs><style>.a,.b{fill:#fff;}.a{stroke:#fff;}</style></defs><g transform="translate(-18.018 -14.7)"><path class="a" d="M29.552,39.948a2.613,2.613,0,0,0-.332-.148l-.055-12.744a.068.068,0,0,0,.055-.018,1.4,1.4,0,0,0,.848-.664,1.373,1.373,0,0,0,.148-1.07,1.336,1.336,0,0,0-.664-.848,1.357,1.357,0,0,0-1.07-.129,1.43,1.43,0,0,0-.609.35l-11.379-6.51a1.4,1.4,0,0,0-.166-1.014,1.462,1.462,0,0,0-.885-.7,1.375,1.375,0,0,0-1.107.148,1.433,1.433,0,0,0-.682.885,1.361,1.361,0,0,0-.018.719L2.294,24.659a1.43,1.43,0,0,0-.609-.35,1.357,1.357,0,0,0-1.07.129,1.4,1.4,0,0,0-.664.848A1.291,1.291,0,0,0,.1,26.356a1.4,1.4,0,0,0,.848.664c.018,0,.037.018.055.018L.948,39.782a1.31,1.31,0,0,0-.332.148,1.4,1.4,0,0,0-.664.848A1.291,1.291,0,0,0,.1,41.847a1.4,1.4,0,0,0,.848.664,1.357,1.357,0,0,0,1.07-.129,1.539,1.539,0,0,0,.221-.148l11.4,6.658a1.462,1.462,0,0,0,.166,1.033,1.454,1.454,0,0,0,2.674-.332,1.35,1.35,0,0,0,.018-.664l11.434-6.676a.927.927,0,0,0,.221.148,1.357,1.357,0,0,0,1.07.129,1.4,1.4,0,0,0,.848-.664,1.373,1.373,0,0,0,.148-1.07A1.4,1.4,0,0,0,29.552,39.948Zm-14.219,1.18V35.89a2.413,2.413,0,0,0,.848-.277,2.134,2.134,0,0,0,.793-.775l10.512,5.994a.926.926,0,0,0-.037.221ZM21.567,29.38l-4.85,2.766a2.3,2.3,0,0,0-1.07-.664.937.937,0,0,0-.314-.055V19.311a1.193,1.193,0,0,0,.24-.074ZM27.745,40.3,17.2,34.286c0-.018,0-.018.018-.037a2.159,2.159,0,0,0-.184-1.623L21.862,29.9l6.031,10.254ZM14.688,19.274a.234.234,0,0,0,.111.018V31.427a2.322,2.322,0,0,0-.83.277,2.4,2.4,0,0,0-.535.406L8.62,29.38,14.6,19.237C14.632,19.255,14.651,19.255,14.688,19.274Zm-1.6,13.334a2.162,2.162,0,0,0-.166.443,2.23,2.23,0,0,0,.018,1.254L2.423,40.3c-.055-.055-.092-.111-.148-.166L8.307,29.878ZM2.737,41.054a.926.926,0,0,0-.037-.221l10.494-5.994a2.143,2.143,0,0,0,1.309.977.917.917,0,0,0,.3.055V41.11Zm25.745-1.236c-.037,0-.055.018-.074.018L22.378,29.6l5.348-3.061a1.364,1.364,0,0,0,.424.369,1.692,1.692,0,0,0,.424.166l.055,12.707A.57.57,0,0,0,28.482,39.819Zm-1-13.813-5.4,3.08L16.089,18.923a1.07,1.07,0,0,0,.184-.221L27.56,25.139A1.4,1.4,0,0,0,27.487,26.005ZM14.1,18.942,8.122,29.085,2.7,26.005a1.328,1.328,0,0,0-.074-.848l11.268-6.436A2.21,2.21,0,0,0,14.1,18.942ZM2.036,26.909a1.364,1.364,0,0,0,.424-.369L7.809,29.6,1.778,39.837c-.018,0-.055-.018-.074-.018-.055-.018-.092-.018-.148-.037l.055-12.707A2.019,2.019,0,0,0,2.036,26.909Zm.609,14.735,12.135.074v6.068a2.163,2.163,0,0,0-.443.166,1.286,1.286,0,0,0-.461.424l-11.268-6.6A.267.267,0,0,0,2.645,41.644Zm12.8,6.16a.234.234,0,0,0-.111-.018V41.718l12.19-.074c.018.037.037.092.055.129l-11.324,6.6A1.379,1.379,0,0,0,15.444,47.8Z" transform="translate(18.626 -1.192)"/><g transform="translate(62.023 14.7)"><path class="b" d="M230.926,16.5V46.045h-2.708v-3.66a11.986,11.986,0,0,1-3.868,3.154,10.393,10.393,0,0,1-4.7,1.071,10.5,10.5,0,0,1-7.736-3.273,11,11,0,0,1-3.213-7.974,10.806,10.806,0,0,1,3.243-7.885,10.569,10.569,0,0,1,7.766-3.273,10.129,10.129,0,0,1,4.761,1.131,10.726,10.726,0,0,1,3.719,3.362V16.5ZM219.977,26.854a8.32,8.32,0,0,0-4.225,1.131,8.641,8.641,0,0,0-4.225,7.468,8.956,8.956,0,0,0,4.255,7.528,7.976,7.976,0,0,0,4.166,1.131,8.675,8.675,0,0,0,4.255-1.131,7.861,7.861,0,0,0,3.094-3.065,8.836,8.836,0,0,0,1.1-4.374,8.457,8.457,0,0,0-2.44-6.189A7.91,7.91,0,0,0,219.977,26.854Z" transform="translate(-208.7 -15.964)"/><path class="b" d="M303.449,17.6h2.737v7.914h4.344v2.38h-4.344V46.848h-2.737V27.895H299.7v-2.38h3.749Z" transform="translate(-272.624 -16.737)"/><path class="b" d="M346.5,42.865h2.8v3.124a10.31,10.31,0,0,1,2.648-2.767,5.336,5.336,0,0,1,2.886-.922,5.14,5.14,0,0,1,2.44.714l-1.428,2.321a4.1,4.1,0,0,0-1.458-.387,4.025,4.025,0,0,0-2.648,1.131A6.931,6.931,0,0,0,349.8,49.59a34.457,34.457,0,0,0-.506,7.379v7.2h-2.8Z" transform="translate(-305.5 -34.088)"/><path class="b" d="M409.526,43.006V64.339h-2.708v-3.66a11.986,11.986,0,0,1-3.868,3.154,10.393,10.393,0,0,1-4.7,1.071,10.5,10.5,0,0,1-7.736-3.273,11,11,0,0,1-3.213-7.974,10.806,10.806,0,0,1,3.243-7.885,10.569,10.569,0,0,1,7.766-3.273,10.129,10.129,0,0,1,4.761,1.131,10.725,10.725,0,0,1,3.719,3.362V43.006Zm-10.979,2.113a8.32,8.32,0,0,0-4.225,1.131,8.641,8.641,0,0,0-4.225,7.468,8.956,8.956,0,0,0,4.255,7.528,7.976,7.976,0,0,0,4.166,1.131,8.675,8.675,0,0,0,4.255-1.131,7.861,7.861,0,0,0,3.094-3.065,8.836,8.836,0,0,0,1.1-4.374,8.457,8.457,0,0,0-2.44-6.189A7.866,7.866,0,0,0,398.547,45.118Z" transform="translate(-334.16 -34.228)"/><path class="b" d="M487.21,101.4a2.438,2.438,0,0,1,2.41,2.44,2.383,2.383,0,0,1-.714,1.726,2.42,2.42,0,0,1-3.392-3.451A2.224,2.224,0,0,1,487.21,101.4Z" transform="translate(-402.65 -75.604)"/><path class="b" d="M518.032,14.7a2.235,2.235,0,0,1,2.261,2.261,2.112,2.112,0,0,1-.655,1.577,2.177,2.177,0,0,1-1.607.655,2.112,2.112,0,0,1-1.577-.655,2.263,2.263,0,0,1,0-3.184A2.229,2.229,0,0,1,518.032,14.7Zm-1.369,8.777H519.4V44.811h-2.737Z" transform="translate(-424.427 -14.7)"/><path class="b" d="M554.587,42.4a10.518,10.518,0,0,1,8.152,3.57,11.417,11.417,0,0,1-.178,15.5,11.314,11.314,0,0,1-16.037,0A11.379,11.379,0,0,1,546.346,46,10.718,10.718,0,0,1,554.587,42.4Zm0,2.678a7.882,7.882,0,0,0-5.891,2.529,8.49,8.49,0,0,0-2.469,6.129,8.73,8.73,0,0,0,1.131,4.314,7.986,7.986,0,0,0,3.035,3.094,8.489,8.489,0,0,0,4.2,1.1,8.186,8.186,0,0,0,4.2-1.1,7.791,7.791,0,0,0,3.035-3.094,8.73,8.73,0,0,0,1.131-4.314,8.539,8.539,0,0,0-2.47-6.129A7.975,7.975,0,0,0,554.587,45.078Z" transform="translate(-443.815 -34.158)"/></g></g></svg>