<svg xmlns="http://www.w3.org/2000/svg" width="359.006" height="111.046" viewBox="0 0 359.006 111.046"><defs><style>.a,.b,.c{fill:#fff;}.a{stroke:#fff;}.c,.d{font-size:21px;font-family:Roboto-Regular, Roboto;}.d{fill:#fbae1c;}</style></defs><g transform="translate(-40.496 -32)"><g transform="translate(41 37.378)"><path class="a" d="M56.6,61.43a5,5,0,0,0-.635-.282L55.862,36.78a.13.13,0,0,0,.106-.035,2.672,2.672,0,0,0,1.622-1.269,2.626,2.626,0,0,0,.282-2.045,2.554,2.554,0,0,0-1.27-1.622,2.6,2.6,0,0,0-2.045-.247,2.734,2.734,0,0,0-1.164.67L31.635,19.783a2.676,2.676,0,0,0-.317-1.94,2.8,2.8,0,0,0-1.693-1.34,2.63,2.63,0,0,0-2.116.282,2.741,2.741,0,0,0-1.3,1.693,2.6,2.6,0,0,0-.035,1.375L4.482,32.2a2.734,2.734,0,0,0-1.164-.67,2.6,2.6,0,0,0-2.045.247A2.672,2.672,0,0,0,0,33.395,2.468,2.468,0,0,0,.285,35.44,2.672,2.672,0,0,0,1.908,36.71c.035,0,.071.035.106.035L1.908,61.112a2.5,2.5,0,0,0-.635.282A2.672,2.672,0,0,0,0,63.017a2.468,2.468,0,0,0,.282,2.045,2.672,2.672,0,0,0,1.622,1.27,2.6,2.6,0,0,0,2.045-.247,2.943,2.943,0,0,0,.423-.282l21.793,12.73a2.8,2.8,0,0,0,.317,1.975,2.781,2.781,0,0,0,5.113-.635,2.582,2.582,0,0,0,.035-1.27L53.5,65.838a1.772,1.772,0,0,0,.423.282,2.6,2.6,0,0,0,2.045.247A2.672,2.672,0,0,0,57.59,65.1a2.626,2.626,0,0,0,.282-2.045A2.672,2.672,0,0,0,56.6,61.43ZM29.414,63.687V53.672a4.615,4.615,0,0,0,1.622-.529,4.081,4.081,0,0,0,1.516-1.481l20.1,11.461a1.77,1.77,0,0,0-.071.423ZM41.333,41.223l-9.274,5.29a4.391,4.391,0,0,0-2.045-1.27,1.791,1.791,0,0,0-.6-.106V21.969a2.281,2.281,0,0,0,.458-.141ZM53.146,62.1,32.975,50.6c0-.035,0-.035.035-.071a4.129,4.129,0,0,0-.353-3.1L41.9,42.211,53.428,61.818ZM28.179,21.9a.447.447,0,0,0,.212.035v23.2a4.44,4.44,0,0,0-1.587.529,4.592,4.592,0,0,0-1.023.776l-9.2-5.219L28,21.828C28.074,21.863,28.109,21.863,28.179,21.9Zm-3.068,25.5a4.135,4.135,0,0,0-.317.846,4.263,4.263,0,0,0,.035,2.4L4.729,62.1c-.106-.106-.176-.212-.282-.317L15.978,42.176ZM5.328,63.546a1.77,1.77,0,0,0-.071-.423L25.323,51.662a4.1,4.1,0,0,0,2.5,1.869,1.754,1.754,0,0,0,.564.106V63.651Zm49.229-2.363c-.071,0-.106.035-.141.035L42.884,41.647l10.227-5.854a2.608,2.608,0,0,0,.811.705,3.235,3.235,0,0,0,.811.317l.106,24.3A1.09,1.09,0,0,0,54.557,61.183Zm-1.9-26.413L42.32,40.659,30.859,21.229a2.046,2.046,0,0,0,.353-.423L52.794,33.113A2.669,2.669,0,0,0,52.653,34.77Zm-25.6-13.506-11.426,19.4L5.258,34.77a2.539,2.539,0,0,0-.141-1.622L26.663,20.841A4.226,4.226,0,0,0,27.051,21.264ZM3.988,36.5a2.608,2.608,0,0,0,.811-.705l10.227,5.854L3.494,61.218c-.035,0-.106-.035-.141-.035-.106-.035-.176-.035-.282-.071l.106-24.3A3.861,3.861,0,0,0,3.988,36.5ZM5.152,64.674l23.2.141v11.6a4.136,4.136,0,0,0-.846.317,2.459,2.459,0,0,0-.882.811L5.081,64.921A.51.51,0,0,0,5.152,64.674ZM29.625,76.452a.447.447,0,0,0-.212-.035v-11.6l23.31-.141c.035.071.071.176.106.247L31.177,77.545A2.636,2.636,0,0,0,29.625,76.452Z" transform="translate(0.104 -15.431)"/><g transform="translate(83.18 0)"><path class="b" d="M251.2,16.5V72.995h-5.177V66a22.919,22.919,0,0,1-7.4,6.031,19.873,19.873,0,0,1-8.989,2.048,20.084,20.084,0,0,1-14.792-6.258A21.039,21.039,0,0,1,208.7,52.57a20.662,20.662,0,0,1,6.2-15.077,20.209,20.209,0,0,1,14.849-6.258,19.367,19.367,0,0,1,9.1,2.162,20.509,20.509,0,0,1,7.112,6.429V16.5ZM230.262,36.3a15.909,15.909,0,0,0-8.079,2.162,16.523,16.523,0,0,0-8.079,14.28,17.125,17.125,0,0,0,8.136,14.394,15.251,15.251,0,0,0,7.965,2.162,16.587,16.587,0,0,0,8.136-2.162,15.031,15.031,0,0,0,5.917-5.86,16.9,16.9,0,0,0,2.105-8.363A16.171,16.171,0,0,0,241.7,41.078,15.125,15.125,0,0,0,230.262,36.3Z" transform="translate(-208.7 -15.476)"/><path class="b" d="M306.869,17.6H312.1V32.734h8.306v4.551H312.1V73.526h-5.234V37.285H299.7V32.734h7.169Z" transform="translate(-247.927 -15.95)"/><path class="b" d="M346.5,43.381h5.348v5.974a19.714,19.714,0,0,1,5.063-5.291A10.2,10.2,0,0,1,362.43,42.3a9.828,9.828,0,0,1,4.665,1.365L364.364,48.1a7.831,7.831,0,0,0-2.788-.74,7.7,7.7,0,0,0-5.063,2.162c-1.65,1.422-2.845,3.641-3.7,6.713-.626,2.333-.967,7-.967,14.109V84.116H346.5Z" transform="translate(-268.102 -26.598)"/><path class="b" d="M429.8,43.467V84.259h-5.177v-7a22.918,22.918,0,0,1-7.4,6.031,19.872,19.872,0,0,1-8.989,2.048,20.084,20.084,0,0,1-14.792-6.258A21.039,21.039,0,0,1,387.3,63.835a20.662,20.662,0,0,1,6.2-15.077A20.209,20.209,0,0,1,408.35,42.5a19.368,19.368,0,0,1,9.1,2.162,20.509,20.509,0,0,1,7.112,6.429V43.467Zm-20.994,4.039a15.909,15.909,0,0,0-8.079,2.162,16.522,16.522,0,0,0-8.079,14.28,17.125,17.125,0,0,0,8.136,14.394,15.251,15.251,0,0,0,7.965,2.162,16.587,16.587,0,0,0,8.136-2.162,15.031,15.031,0,0,0,5.917-5.86,16.9,16.9,0,0,0,2.105-8.363,16.17,16.17,0,0,0-4.665-11.834A15.04,15.04,0,0,0,408.806,47.507Z" transform="translate(-285.689 -26.684)"/><path class="b" d="M489.408,101.4a4.663,4.663,0,0,1,4.608,4.665,4.556,4.556,0,0,1-1.366,3.3,4.627,4.627,0,0,1-6.486-6.6A4.253,4.253,0,0,1,489.408,101.4Z" transform="translate(-327.719 -52.074)"/><path class="b" d="M520.067,14.7a4.274,4.274,0,0,1,4.324,4.324,4.038,4.038,0,0,1-1.252,3.015,4.164,4.164,0,0,1-3.072,1.252,4.038,4.038,0,0,1-3.015-1.252,4.326,4.326,0,0,1,0-6.088A4.263,4.263,0,0,1,520.067,14.7ZM517.45,31.483h5.234V72.276H517.45Z" transform="translate(-341.082 -14.7)"/><path class="b" d="M564.792,42.4a20.112,20.112,0,0,1,15.589,6.827,21.832,21.832,0,0,1-.341,29.641,21.633,21.633,0,0,1-30.665,0,21.759,21.759,0,0,1-.341-29.584A20.494,20.494,0,0,1,564.792,42.4Zm0,5.12a15.072,15.072,0,0,0-11.265,4.836,16.234,16.234,0,0,0-4.722,11.72,16.692,16.692,0,0,0,2.162,8.249,15.271,15.271,0,0,0,5.8,5.917,16.233,16.233,0,0,0,8.022,2.105,15.653,15.653,0,0,0,8.022-2.105,14.9,14.9,0,0,0,5.8-5.917,16.692,16.692,0,0,0,2.162-8.249,16.327,16.327,0,0,0-4.722-11.72A15.25,15.25,0,0,0,564.792,47.52Z" transform="translate(-352.979 -26.641)"/></g></g><text class="c" transform="translate(121.309 138.046)"><tspan x="0" y="0">Intelligence Platform</tspan></text><text class="d" transform="translate(356.502 52)"><tspan x="0" y="0">Beta</tspan></text></g></svg>